# xmcd CD database file
#
# Track frame offsets:
#	150
#	13137
#	28372
#	39767
#	52242
#	65810
#	78865
#	90012
#	103467
#	117190
#	134747
#
# Disc length: 2012 seconds
#
# Revision: 1
# Processed by: cddbd v1.5.2PL0 Copyright (c) Steve Scherf et al.
# Submitted via: CDValet v3.40 - Copyright (c) 1996 - 1998 Greg Leichner
#
DISCID=9707da0b
DTITLE=Earl Scruggs and Tom T. Hall - The Storyteller And The Ban
DTITLE=jo Man
DYEAR=1900
DGENRE=
TTITLE0=Song Of The South
TTITLE1=Shackles And Chains
TTITLE2=The Engineers Don't Wave From The Trains Anymore
TTITLE3=Don't This Road Look Rough And Rocky
TTITLE4=Lonesome Valley
TTITLE5=Roll In My Sweet Baby's Arms
TTITLE6=There Ain't No Country Music On This Jukebox
TTITLE7=A Lovers Farewell
TTITLE8=Don't Give your Heart To A Rambler
TTITLE9=Dim Lights, Thick Smoke (And Loud Loud Music)
TTITLE10=No Expectations
EXTD=
EXTT0=
EXTT1=
EXTT2=
EXTT3=
EXTT4=
EXTT5=
EXTT6=
EXTT7=
EXTT8=
EXTT9=
EXTT10=
PLAYORDER=
